<?xml version="1.0" standalone="no"?>
<!DOCTYPE svg PUBLIC "-//W3C//DTD SVG 1.1//EN" "http://www.w3.org/Graphics/SVG/1.1/DTD/svg11.dtd">
<svg width="100%" height="100%" viewBox="0 0 491 132" version="1.1" xmlns="http://www.w3.org/2000/svg" xmlns:xlink="http://www.w3.org/1999/xlink" xml:space="preserve" style="fill-rule:evenodd;clip-rule:evenodd;stroke-linejoin:round;stroke-miterlimit:1.41421;">
    <g transform="matrix(1,0,0,1,-273.889,-180.895)">
        <path d="M317.639,243.77L317.639,193.77L273.889,193.77L273.889,181.27L373.889,181.27L373.889,193.77L330.139,193.77L330.139,243.77L317.639,243.77Z" style="fill:white;fill-rule:nonzero;"/>
    </g>
    <g transform="matrix(1,0,0,1,-273.889,-180.895)">
        <path d="M380.139,243.77L380.139,181.27L392.639,181.27L392.639,206.27L405.139,206.27L405.139,181.27L417.639,181.27L417.639,243.77L405.139,243.77L405.139,218.77L392.639,218.77L392.639,243.77L380.139,243.77Z" style="fill:white;fill-rule:nonzero;"/>
    </g>
    <g transform="matrix(1,0,0,1,-273.889,-180.895)">
        <path d="M423.889,243.77L423.889,181.27L461.389,181.27L461.389,193.77L436.389,193.77L436.389,206.27L461.389,206.27L461.389,218.77L436.389,218.77L436.389,231.27L461.389,231.27L461.389,243.77L423.889,243.77Z" style="fill:white;fill-rule:nonzero;"/>
    </g>
    <g transform="matrix(1,0,0,1,-5.24052,-183.376)">
        <path d="M469.991,235.876L469.991,209.626L312.491,209.626L312.491,235.876L469.991,235.876ZM286.241,314.626L286.241,209.626L299.366,196.501L312.491,183.376L469.991,183.376L482.91,196.501L483.116,196.501L496.035,209.626L496.241,209.626L496.241,314.626L469.991,314.626L469.991,262.126L312.491,262.126L312.491,314.626L286.241,314.626Z" style="fill:white;fill-rule:nonzero;"/>
    </g>
    <g transform="matrix(1,0,0,1,-97.4066,-171.759)">
        <path d="M109.907,302.634L103.657,296.384L97.407,290.134L97.407,252.634L103.657,246.384L109.907,240.134L184.907,240.134L191.059,246.384L191.157,246.384L197.309,252.634L197.407,252.634L197.407,258.884L184.907,258.884L184.907,252.634L109.907,252.634L109.907,290.134L184.907,290.134L184.907,277.634L147.407,277.634L147.407,265.134L197.407,265.134L197.407,302.634L184.907,302.634L184.907,299.509L181.782,302.634L109.907,302.634Z" style="fill:white;fill-rule:nonzero;"/>
    </g>
    <g transform="matrix(1,0,0,1,-97.4066,-171.759)">
        <path d="M228.657,265.134L228.657,252.634L216.157,252.634L216.157,265.134L228.657,265.134ZM203.657,302.634L203.657,240.134L228.657,240.134L234.809,246.384L234.907,246.384L241.059,252.634L241.157,252.634L241.157,265.134L241.059,265.134L234.907,271.384L241.059,277.634L241.157,277.634L241.157,302.634L228.657,302.634L228.657,277.634L216.157,277.634L216.157,302.634L203.657,302.634Z" style="fill:white;fill-rule:nonzero;"/>
    </g>
    <g transform="matrix(1,0,0,1,-97.4066,-171.759)">
        <path d="M247.407,302.634L247.407,240.134L284.907,240.134L284.907,252.634L259.907,252.634L259.907,265.134L284.907,265.134L284.907,277.634L259.907,277.634L259.907,290.134L284.907,290.134L284.907,302.634L247.407,302.634Z" style="fill:white;fill-rule:nonzero;"/>
    </g>
    <g transform="matrix(1,0,0,1,-97.4066,-171.759)">
        <path d="M316.157,265.134L316.157,252.634L303.657,252.634L303.657,265.134L316.157,265.134ZM291.157,302.634L291.157,252.634L297.407,246.384L303.657,240.134L316.157,240.134L322.309,246.384L322.407,246.384L328.559,252.634L328.657,252.634L328.657,302.634L316.157,302.634L316.157,277.634L303.657,277.634L303.657,302.634L291.157,302.634Z" style="fill:white;fill-rule:nonzero;"/>
    </g>
    <g transform="matrix(1,0,0,1,-97.4066,-171.759)">
        <path d="M347.407,302.634L347.407,252.634L334.907,252.634L334.907,240.134L372.407,240.134L372.407,252.634L359.907,252.634L359.907,302.634L347.407,302.634Z" style="fill:white;fill-rule:nonzero;"/>
    </g>
</svg>
